<?xml version="1.0" encoding="UTF-8"?>
<svg id="Layer_1" data-name="Layer 1" xmlns="http://www.w3.org/2000/svg" viewBox="0 0 521.68 523.85">
  <defs>
    <style>
      .cls-1 {
        fill: #333132;
      }
    </style>
  </defs>
  <path class="cls-1" d="M516.44,221.22c-7.4,1.79-20.85,8.97-26.91,6.73-12.56-4.71-34.08-45.3-35.65-59.2-3.14-30.5,21.98-35.43,15.92-65.93-22.2,3.59-23.54,30.5-36.1,42.16-6.28,6.05-18.61,11.44-27.36,11.88-77.36,3.81-131.85-38.79-183.65-89.25-21.98-21.3-41.04-45.3-63.46-66.15-28.7-7.4-15.92,15.25-19.96,22.87-1.79,3.36-8.07,4.93-10.76,8.3-22.65,27.81,22.42,45.3,22.87,71.53,0,8.75-4.71,12.78-5.38,18.84-1.79,18.16-1.79,35.88-.22,51.35.67,6.95,1.35,23.1,0,29.6-2.24,11.66-20.63,13.23-16.14,32.07.45,2.24,4.93.67,5.61,5.83,2.02,15.92,2.24,41.48-17.94,44.62-3.36.45-27.81,2.47-29.15,2.24-3.36-.67-6.5-6.5-10.54-8.07-13.45-5.61-37.22-.9-33.86,17.49,3.59,20.41,30.05,21.3-3.14,49.33C18.64,366.07-.87,365.85.03,403.97c.67,32.74,40.36,29.82,42.83,63.01.67,9.42-6.95,7.85-11.66,14.13-21.3,28.7,34.08,65.48,40.81,24.44,1.12-6.95-2.24-10.31.22-18.16,1.35-4.04,13.01-19.73,15.7-19.73,1.79,0,13.45,14.58,32.51,10.76,4.71-.9,25.56-20.63,17.04-26.68-2.92-2.02-31.17-6.73-34.08-11.66-2.02-3.14,1.35-11.66-2.92-14.58-8.75-5.83-42.6,7.4-46.19-18.61-2.92-21.3,6.5-33.19,28.48-31.39,19.06,1.79,16.14,18.16,26.91,29.82,21.53-20.63,26.01-40.36,59.42-43.05,43.05-3.59,49.33,23.32,81.62,39.69,17.04,8.75,32.51,9.42,49.78,15.02,8.07,2.47,15.7,10.09,23.77,8.75,3.81-2.69,3.59-52.47,6.5-63.68,2.92-11.21,27.58-43.05,36.55-52.7,3.81-4.04,22.65-21.3,26.24-22.42,13.9-4.26,35.21,10.99,46.87,3.59,8.07-5.16-13.9-17.71-1.35-20.41,4.48-.9,7.18,6.5,11.44,7.62,10.76,2.92,15.25-9.42,22.65-14.35,7.62-4.93,20.63-8.52,26.68-13.9,6.95-6.05,12.11-21.08,21.75-26.91.45-6.95-1.12-2.92-4.71-2.02l-.45.67Z"/>
</svg>