<?xml version="1.0" encoding="UTF-8"?>
<svg id="Layer_1" data-name="Layer 1" xmlns="http://www.w3.org/2000/svg" viewBox="0 0 272.42 213.36">
  <defs>
    <style>
      .cls-1 {
        fill: #333132;
      }
    </style>
  </defs>
  <path class="cls-1" d="M261.01,32.17c-2.47-4.93-.45-15.02-6.73-17.49-2.69-1.12-7.4,2.02-11.66.9-16.59-4.48-12.78-8.3-37.9-10.99-4.04-.45-6.95-5.38-13.45-4.48-3.59.45-32.74,19.73-34.53,22.42-4.93,6.95-1.79,24.89-12.56,28.03-5.38,1.57-12.11-.22-17.94,1.12-5.16,1.12-10.09,7.85-13.68,7.4-4.48-.9-14.13-16.82-19.96-18.39-21.75-5.61-28.25,44.85-37.45,56.28-2.02,2.47-29.6,26.24-32.07,27.36-5.83,2.47-23.1,2.02-23.1,6.5,0,6.95,23.77.45,30.5,2.02,9.64,2.24,15.92,12.78,17.49,21.98-6.73,10.54-8.75,22.87-12.78,34.31-1.79,6.73-.9,8.52,2.69,5.38,1.79-2.47,5.61-8.75,9.19-8.07,9.87,4.04,15.7,26.68,24.44,26.91,5.61,0,12.11-7.18,17.49-9.42,4.04-1.79,15.25-.45,16.37-5.38.67-3.81-6.73-9.42-5.16-15.47,1.12-4.48,17.94-17.49,21.75-26.91,2.92-7.18,2.24-17.27,6.28-23.54,3.59-5.38,12.78-6.95,18.39-11.21,11.44-8.52,8.3-18.84,31.62-11.88,10.99,3.36,30.5,32.29,40.14,25.56,1.35-.9,8.75-26.01,12.56-32.07,7.85-13.01,37.45-33.64,39.47-39.02,6.73-17.04-5.38-21.75-9.87-31.39l.45-.45Z"/>
</svg>