<?xml version="1.0" encoding="UTF-8"?>
<svg id="Layer_1" data-name="Layer 1" xmlns="http://www.w3.org/2000/svg" viewBox="0 0 1029.95 1048.58">
  <defs>
    <style>
      .cls-1 {
        fill: #333132;
      }
    </style>
  </defs>
  <path class="cls-1" d="M1018.55,187.7c-18.84-28.93-38.79-57.18-62.11-82.52-13.45-16.14-17.94-34.98-13.68-57.18l-6.05-4.71c-2.02-11.44-8.97-23.54-5.38-37.9-8.52-.9-13.9,6.73-22.87,5.38-7.18-1.12-11.88-12.56-21.08-10.54-7.85,1.79-13.01,21.3-15.47,29.37-3.14,10.31-5.61,20.85,9.64,21.53,10.99.67,18.16-8.97,25.34-14.8,2.47-2.02,4.04-6.28,6.73-1.35,2.24,4.04,2.47,34.08,0,37.9-3.81,6.28-8.97-2.02-13.68-2.69-18.61-3.36-15.92,15.92-26.24,13.23-20.63-5.38,1.79-44.4-22.2-45.74-32.74-1.79-20.41,26.91-23.32,47.31-4.04,30.27-31.17,25.79-34.53,38.57-2.69,10.09,16.59,23.32,19.73,30.5,2.92,6.5,2.02,25.11,0,32.51-4.04,15.25-25.79,21.53-19.96,38.79,3.36,10.09,21.98,2.92,26.68-3.59,11.44,20.41,13.23,40.14,10.99,63.68-3.36,35.88-19.73,65.25-28.93,97.99-5.16,18.39-4.04,21.53-6.5,39.47-4.26,30.94-37,37.45-49.56,61.22-25.56,47.99-21.75,73.1-77.81,103.15-12.78,6.73-28.48,6.28-38.34,13.01-10.99,7.18-8.97,28.03-26.46,23.99-17.04-4.04-9.64-24.67-11.44-29.37-2.02-5.61-15.25-7.18-5.38-16.14,4.48-4.04,11.21-5.16,16.37-10.54,5.61-5.83,18.39-27.81,9.42-34.08-13.9-9.64-22.87,10.31-30.05,13.45-11.66,5.38-15.02,0-26.91,13.45-20.85,23.32-1.35,32.29,0,56.96.45,8.97-1.79,17.49-3.59,26.01l-60.77,87.68c.67,13.23,20.41,22.42,14.35,35.88-2.92,6.5-12.78,7.85-17.71,12.11-7.62,6.28-6.5,14.13-21.3,16.82-10.31,1.79-7.85-2.47-13.68-5.61-2.92-1.57-7.4-1.12-7.85-1.57-6.95-1.57-11.44-6.95-13.45-16.14-5.83-5.38-5.38-7.18-16.14-5.38-6.73,4.26-10.54,16.14-18.16,18.39-13.45,4.04-28.7-4.71-42.6-2.02-8.07,1.57-30.5,16.37-41.93,20.18-21.53,7.18-25.79,2.02-44.4,4.26-15.92,2.02-23.32,13.9-43.28,10.54-4.26-.67,6.28-27.36-23.99-10.31-18.61,10.31-48.88,44.62-65.03,61.89-12.11,12.78-37.22,48.43-48.66,56.73-6.28,4.48-15.02.9-23.1,6.5-7.85,5.61-10.31,18.61-20.63,25.11-9.87,6.28-34.76,8.52-37.45,11.21s-6.73,27.36-6.05,30.94c.9,4.48,5.61,5.38,8.52,6.73l12.33,4.93c7.85.45,4.93,6.73,9.42,11.66,10.09,10.76,26.24-13.01,35.88-15.7,26.46-6.95,41.71,13.9,61.44,26.24,7.18-6.05,2.92-16.14,4.71-25.11,1.12-5.16,5.83-9.64,6.95-14.58,1.79-8.75-2.92-23.99,7.85-27.36,17.04-4.93,19.51,18.84,33.86,15.25,4.48-1.12,13.68-9.87,19.96-12.78,7.4-3.36,15.47-3.59,22.42-7.18,5.16-2.92,12.11-12.78,18.39-14.13,5.38-1.12,15.47,4.71,19.28,1.79,1.79-1.35.45-8.07,4.93-10.54,1.79-.9,19.06-4.71,21.53-4.48,5.16,0,8.52,4.26,13.23,4.71,13.45,1.12,43.95-37.45,57.18-40.14,11.44-2.24,51.13,6.95,66.82,7.85,9.42.45,26.68-4.93,31.39,1.12,12.56,16.14-23.32,32.74-26.68,43.95-.67,2.47,1.79,42.6,2.69,44.85,1.79,5.16,9.42,5.38,13.01,8.52,4.04,3.59,4.71,9.64,8.3,13.45,8.52,9.42,39.91,30.94,52.25,28.03,1.35-.45,22.87-16.37,23.54-17.71,6.73-11.44-.9-24.44.45-31.62,1.12-5.61,20.18-15.02,24.89-23.54,4.71-8.52,2.92-20.85,4.71-23.54.45-.9,16.37-8.52,19.06-9.42,18.61-6.28,24.67,0,39.91-15.47,4.71-23.99-47.31-32.51-48.66-47.31-.9-8.75,10.76-23.77,18.16-28.03,19.96-11.66,6.95,13.45,17.04,25.56,5.38,6.5,8.3,1.35,13.68,1.12,11.88-2.92,16.37-1.12,13.45,5.38-1.12.67-1.79,2.24-2.69,2.69-11.88,7.62-6.5,12.11,5.38,8.07l4.71,2.02c27.36-9.42,56.73-13.23,87.68-10.99,16.37-.9,26.91-10.54,32.07-28.48,6.95-34.08,39.24-63.46,33.86-6.95,1.12,19.96,23.54,28.48,29.82,6.95,25.34-13.45,21.3-37.67,11.66-60.32-1.79-23.99,27.81-28.03,37.9-7.85,10.76.45,17.04,3.59,18.39,9.64.67,35.21,27.13,25.34,38.34,1.12l26.91-20.41c2.69-18.16,4.04-36.33,4.04-54.49l4.93-5.38c18.39-7.62,25.79-17.04,22.42-28.03-29.6-27.13-36.1-51.13-29.82-90.59,8.3-16.37,17.04-34.98,21.75-52.7,11.66-43.95-.67-71.08-22.42-108.31-5.61-20.85-4.93-53.37,23.1-55.16,13.9,3.36,30.5,4.93,27.36-14.35-21.3-30.94-12.78-53.37,9.87-79.16,6.5-12.11,12.11-40.14,12.56-54.71.67-17.71,0-32.96-10.76-48.43l-.45-.22Z"/>
</svg>