<?xml version="1.0" encoding="UTF-8"?>
<svg id="Layer_1" data-name="Layer 1" xmlns="http://www.w3.org/2000/svg" viewBox="0 0 263.12 359.14">
  <defs>
    <style>
      .cls-1 {
        fill: #333132;
      }
    </style>
  </defs>
  <path class="cls-1" d="M220.5,78.26c-5.16-4.93,16.37-24.44,5.61-39.24-10.31-14.58-25.79,1.79-34.53,3.81-19.73,4.26-35.88-23.54-42.38-41.26l-8.3-1.57c-14.13,13.45-28.48-2.02-46.42,26.46-4.26,6.95-3.59,18.61-13.01,19.28-4.93.45-9.42-4.26-14.8-1.57-7.18,3.59-7.4,16.59-8.52,17.49-5.83,5.16-34.98-10.09-26.68,21.98-1.12,1.35-19.06-12.11-29.82,3.81-7.4,10.99,12.11,24.44,19.06,32.51-27.13,17.27,18.16,33.19,5.38,55.39,19.73,3.81,26.91-16.59,41.93-24.22,3.14,12.11-3.36,31.39,15.7,21.3,23.99-12.78,19.73-43.95-11.66-32.07-3.14-10.76,1.35-48.21,18.16-31.62,1.57,1.57,21.08,34.31,21.53,36.33,4.71,17.49-6.28,18.16-7.62,26.46-.9,4.93,4.93,3.36,5.61,5.83,1.35,5.38.45,19.73-1.12,25.34-3.14,10.09-31.39,31.84-33.86,44.4-5.61,29.37,7.18,27.36,15.7,43.5,10.76,20.41-14.58,21.75-10.54,42.83,2.47,12.56,45.3,19.06,51.57,10.99,16.37-20.63-34.08-36.77-1.57-55.61,3.14,4.04-2.69,8.52-1.12,14.13,2.47,9.19,23.99,14.8,17.27,28.93-1.79,4.04-24.67,21.98-10.31,26.68,12.78,4.04,39.69-13.68,43.5-26.01,1.12-3.81,2.24-21.3,3.36-22.2,9.64-1.57,15.92,13.68,26.46,7.62,14.58-8.52,6.5-66.82,8.97-84.31.9-7.18,11.44-45.97,13.9-53.59,3.36-10.09,11.21-15.02,15.02-22.65,2.24-4.48,15.92-30.5,16.14-32.51.67-6.73-26.24-59.2-42.6-46.87v.22Z"/>
</svg>